<?xml version="1.0" encoding="UTF-8"?>
<svg id="logo" xmlns="http://www.w3.org/2000/svg" version="1.1" viewBox="0 0 1851 882.6">
  <!-- Generator: Adobe Illustrator 29.0.0, SVG Export Plug-In . SVG Version: 2.1.0 Build 186)  -->
  <defs>
    <style>
      .st0 {
        fill: #861234;
      }
    </style>
  </defs>
  <path id="logo-white" class="st0" d="M1849.7,399.7c-.2-1.2-.5-2.5-1.4-3.4-1.5-1.6-4.4-1.3-6.1.1-1.8,1.4-2.7,3.5-3.7,5.6-13.1,28.5-34,53-59.5,71.1,1.2-4.7,1.7-9.6,2.1-14.4,3.3-41.8,1.1-84.1-6.5-125.3-4.5-24.4-10.9-50.3-2.4-73.5,4.5-4.8,8.5-10.1,12.5-15.4,4.5-6,9-12.2,11.4-19.3s2.3-15.5-2.1-21.6c-4.7-6.5-13.7-9.1-21.6-7.7-7.9,1.4-14.9,6.3-20.3,12.2-5.5,6-9.6,12.9-13.9,19.7-18.6,29.3-36.6,57.7-60.7,82.7-14.7,15.3-28,31.9-39.8,49.5-3.3,5-8.1,14-13.7,16.1-7.3,2.7-7.6,3.1-11.6,7.7-6.8,8-4.8,20.4-9.1,30-3.3,7.6-15.3,19.8-18.8,24.2-8.1,10.1-6.7,41.8-3.8,43,2,.8,3.9-.7,5.1-2.5,5-7.2,10-14.3,14.9-21.4,1.2-1.7,3.3-3.7,5.1-2.7,2.3,1.3,1.8,4.4,2,6.6,0,1.6.7,3.2,1.1,4.8.8,3.2,1.6,6.5,2.6,9.6,1.9,6.4,4,12.7,6.7,18.8,1.8,4.1,3.8,8.2,6,12.1,8.1,14.3,19.8,26.9,34.6,34,21.7,10.5,47.6,8.2,70.3,0,27.9-10,52.3-28.1,73.2-49,11.7-11.8,22.5-24.6,32.8-37.7,2.7-3.5,5.1-7.5,8.3-10.5.7-.6,1.4-1.1,2-1.8,1.8-2.2,2.4-5.7,3.1-8.3.9-3.2,1.5-6.5,1.9-9.9,1-7.8.8-15.7-.7-23.4h0ZM1724.2,451.5c-3.9,8.5-9.6,16.5-16.7,22.5-4.8,4.1-10.2,7.3-16.1,9.2-7.5,2.5-38.5,11.5-54.9-33.2,0,0,0,0,0-.1,8.9-6.6,17.1-14.5,22.5-24.2s7.8-21.4,4.9-32.1c-.2-.7-.4-1.4-.7-2.1-1.5-4.2-3.8-8.1-6.9-11.4,7.2-9.4,29.2-38.1,46.8-58,7.6-8.7,14.4-15.6,18.8-18.7,1.4-1,2.4-2.3,3.6-3.5,10.3,34.1,11.6,70.5,8.5,106-1.4,15.6-3.6,31.4-10.1,45.7h.2ZM1559.2,254.6c-2-2.9-1.8-7.5.2-10.6,2.1-3.2,5.4-5.3,8.6-7.2,5.9-3.5,12-6.7,17.4-11s10.1-9.7,12.1-16.3c2.2-7.2,2.6-13.8,2.1-21.3s-.7-15.1,1.1-22.4c1.9-7.3,5.6-13.2,12.3-16.4,11.4-5.4,31.7-1.3,43.6-3.9,7.5-1.7,17.4-13,25.2-11.3,4.9,1.1,1.6,10.7.7,12.8-2.6,6-5.5,11.9-8.7,17.6-3.2,5.8-6.8,11.3-10.3,16.9-19.7,31.9-42.9,53-67.2,66-17.6,9.4-33.7,12.4-37.3,7.1h.2ZM1514.5,401.1c-.5-2.8-1.1-6.5-4-7.9-1.1-.6-1.9-.3-2.6.7-1.5,2-2.8,4.5-3.9,6.7-1.2,2.5-2.5,5-3.9,7.5-2.7,4.9-5.7,9.7-8.9,14.3-6.5,9.2-14,17.7-22.3,25.2-8.4,7.5-17.5,16.2-27.3,21.7-.2.1-.4.2-.6.3-6,3.3-13,5.4-19.3,2.8-12.3-5.3-7.2-20.9-5.3-25.4,12.1-29.6,31.7-60.3,49.9-86.5,5.5-7.9,11.2-15.6,17.2-23.2,3.8-4.8,7.5-9.7,10.5-15.1,5.5-10,8.3-22.5,3.4-32.9-2.7-5.8-7.5-10.3-12.4-14.3-14.2-11.7-31.3-20.3-50-19.7-11.1.3-22.1,3.6-31.4,9.7-3.5,2.3-14.1,12.4-18.5,11.3-6.6-1.7-2.9-16.4-13.2-18.1-2.6-.4-51.5,0-56.8,3.4-5.1,3.3-30.2,46.4-31,47.7-15.6,27.9-32,46.3-36.1,52.2-8.2,11.6-46.6,66.7-47.1,67.3-7.2,7.8-16.5,14-27,15.4-6.4.9-13.2-.4-18.9-3.5-2.1-1.2-3-3.7-2-5.9,9.6-21.7,34.7-83,27.2-119.1-.2-1.1-.7-2.7-1.3-4.5h0c-1.6-4.6-4-10.6-5.8-14.4v-.2c-1.6-3.1-3.5-6.1-5.5-8.9-8.7-12.3-20.8-22.1-34.3-27.8-43.6-18.6-82.3-4.8-110,14.8-7.6,5.4-43.7,40.9-61.4,80.2-3.8,8.5-13.4,25.5-25.6,44.6-2.3,3.5-4.6,7.1-7,10.7,0,0,0,.1,0,.1-13.9,22.6-28.8,44.8-48.6,62.2-2,1.7-4,3.4-6.2,4.9h0c-2.5,1.7-5.3,3.2-8.2,4.1-5.5,1.7-13,1.8-16.2-3-7.1-10.9-3.3-24.1,7.5-43.9,16.3-24.9,32.6-49.9,48.8-74.8,12.5-19.2,25.5-36,38.1-55.2,5.3-8.1,9.9-19.3,6.1-29.3-5.6-14.8-22.2-12.2-50.6-12h-43.1c-1.5,1.6-3,3.1-4.5,4.5-2.4,2.4-4.9,4.7-7.8,6.3-3,1.6-6.5,2.4-9.7,1.3-1.7-.6-3.1-1.6-4.2-2.9-2.9-3.2-4-8.4-3.4-12.9.8-6.3,3.7-12.1,4.8-18.3.7-4,.4-8.5-1.6-12.1-.9-1.7-2.4-3.1-4-4.2-2.3-1.6-4.5-2.9-7.3-3.6-4.8-1.2-9.9-.8-14.8,0-7.7,1.2-15.2,3.9-22,7.8-5.7,3.2-10.9,7.3-15.4,12-2,2.1-4.8,4.7-5.8,7.5-1.1,3-2.7,5.6-4.2,8.4-4.2,8.1-7.6,16.7-9.1,25.7-2,11.6-.9,24,4.4,34.5,1.2,2.3,2.5,4.5,4.1,6.5-1.4,3.4-2.9,6.9-4.4,10.3-3.4,7.7-6.9,15.3-10.5,22.9-3.6,7.5-7.3,15-11.2,22.4-3.9,7.5-7.9,14.8-12,22.2-4.1,7.3-8.3,14.5-12.7,21.6-2.9,4.8-5.9,9.6-9,14.4h0c-11.6,14.9-27,32.9-40.7,35.6-3,.6-6.2.5-9.3,0-2.5-.4-5.2-1.2-6.8-3.2-14.8-18.3,11.9-63.4,24.7-88,18.3-35.2,36.6-70.4,54.9-105.6,3.4-6.5,8.9-14.5,5.2-20.9-2.8-4.8-8.5-6.7-13.8-8-10.3-2.5-20.9-4-31.6-4.4-9.3-.4-19.8.6-26.2,7.4-4.2,4.4-6.2,11.1-12,13.4-24.6-14.6-52.9-23.6-80.8-18.9-37.2,6.2-66.8,35.5-86.4,67.7-19.6,32.2-31.9,68.5-50.6,101.3-13.9,24.5-32.7,47.8-56.5,62-6.4,2.4-13,3.7-20.2,1.9-7.4-1.9-23.8-16.7-8.8-54.8,10.8-27.4,22.2-55.7,34.3-83,14.9-1.8,29.1-3.9,43.5-6.1,29-4.5,29.3-52.2-8.7-49.2-3.6.3-8.6.5-13.5.8,33.3-71,54.3-119.2,92.6-196.9,3.3-6.8,7-18.6,5.9-26.1-1.5-11.1-5.9-22.3-13.7-30.3C455.7,9.4,430.4-1.8,401.5.2c-35.9,2.5-66.9,24.1-93.4,48-37.6,33.7-71.1,71.8-100.3,113-36.6,51.7-70.3,105.3-101,160.7-11.2,2.6-22.5,4.7-33.9,5.3-12.6.6-25.5-.7-37.4-5.1-4.2-1.5-8.6-8.4-12.5-4.5-4.3,4.3-9.9,11.2-13.3,16.2-3.8,5.7-7,11.9-8.7,18.5-3.7,14.4,4.1,31.9,17.7,37.9,8.4,3.7,32.4,1.8,52.7-1.3-14.4,28.8-28,58-40.7,87.6-5,11.5-9.9,23.5-11.2,35.8-.6,6,2.4,11.8,7.7,14.9,16.6,9.5,46.9,17.5,64.9,19.3,10.6,1.1,12.1-6.4,15.2-16.6,16.2-53.8,36.6-111.4,56.3-155.5l112.2-17.4c-2.8,6.7-5.7,13.3-8.8,19.8-36.8,77.2-8,121,2,132.1,4.6,5,18.1,18.6,35.3,24.5.1,0,.2,0,.3,0,6.6,2.8,14.4,3.4,21.4,3.1,8.9-.4,17.7-2.6,25.8-6.2.9-.4,1.9-.8,2.8-1.3,17.4-8.6,31.4-22.7,44.4-37.1,11.3-12.6,22.1-25.6,32.4-39,1.4-1.8,2.8-3.7,4.1-5.5.7-1,2.3-.5,2.3.7.5,17.1,4.3,34.2,11.4,49.8,5.4,11.9,12.7,23,22.6,31.6,9.9,8.5,22.5,13.5,35.5,14.6,28.6,2.3,51.7-30.2,59.6-42.5.8-1.3,2.8-.8,3,.7,1.4,9.7,4.5,21.6,10.7,27.7,10.5,10.4,26.8,13.3,41.2,10.1,8.2-1.8,15.8-5.3,22.9-9.8,12.6-3.9,22.7-14.1,31.6-24.2,42.7-49,73.6-106.7,102.9-164.9,2.1.9,4.3,1.7,6.5,2.3,14,4.1,29.1,3.3,43.2-.3,3-.8,7.2-1.1,8.3,1.8.6,1.7-.3,3.5-1.1,5.1-4.2,7.6-8.3,15.2-12.5,22.9-3.3,4.8-6.7,9.5-10.1,14.3-12.4,17.7-22.9,35.5-31,55.5s-16.4,38.7-9.9,59.3c6.5,20.6,27.2,41.5,48.5,45,24.7,4,55.3-23.9,64-32.5,21.1-21,39.1-44.1,53.3-69.6.7-1.3,2.6-.9,2.7.6.3,4.6.7,11.1,1.3,14.2.8,4.9,2,9.9,3.5,14.6,1.5,4.8,3.3,9.5,5.5,14s4.7,8.9,7.5,13.1c2.8,4.1,5.9,8.1,9.3,11.7.8.9,1.7,1.8,2.6,2.7,23.5,23.3,50.6,37,91.6,24,19.5-6.2,39.6-22.2,52.7-37.1,8.8-10,14.3-19.2,19.2-29.8.9-2,3.1-3,5.2-2.5,3.8.9,7.5,2.1,11.3,3,21.6,5.1,45.5-1.5,61.6-16.7.6-.6,1.8,0,1.6.8-3.7,12.5-10.8,24.3-17.9,35.8-7.5,12.2-12.2,29.2-2.8,40,6.5,7.5,17.3,9.1,27.2,10.2,10.5,1.2,22.1,2.1,30.9-3.7,7.1-4.7,11-12.8,14.5-20.6,13.4-29.3,26.6-58.6,42.1-86.9,7.6-14,15.8-27.8,24.8-41,4.3-6.3,8.8-12.5,13.1-18.8,4.3-6.4,23.1-28.6,27.1-32.2,9.2-8.2,13.6-7.1,16.4-7.6,4.3-.6,9.6.2,11,4.3,1,2.8-.6,5.9-2.1,8.4-3.4,5.7-40.7,64.2-43.4,69.7-2.9,5.8-5.6,11.7-8.1,17.7-3.1,7.3-5.9,14.6-8.6,22.1-.5,1.5-1.3,2.8-1.7,4.4-.9,3.3-1.8,6.7-2.6,10-1.5,6.4-2.8,12.9-3.3,19.5-.8,10.9.6,22.3,5.8,31.9,7.6,14,22.9,22.9,38.7,24.6,12.5,1.3,25.2-1.6,36.4-7.1,2.7-1.3,5.4-3.5,8.3-4.2,1-.3,2-.4,2.9-.7,2-.8,3.9-1.9,5.7-3,4.1-2.3,8-4.8,11.9-7.5,9.7-6.7,18.4-14.8,26.4-23.4,2.1-2.3,4.2-4.6,6.3-7,.7-.7,1.3-1.4,1.7-2.2.5-.9,1.1-1.6,1.7-2.4,3.1-3.9,6.1-7.8,9-11.8,7.8-10.8,14.9-22.1,22-33.4,3.1-5,6.3-10.1,7.8-15.7,2.2-8.3.8-17-.6-25.5v-.5ZM302,292.6l-106.3,14.1c50.1-110.9,161.4-246.5,195.6-250.7,7.4-.9,15.8.4,19.8,6.7,3.1,4.8,3.7,8.3,1.7,13.7-2,5.3-21.7,31.4-61.4,107.2-8.8,16.8-16.2,34.4-24,51.7-8.7,19-17.1,38.2-25.4,57.4h0ZM611.8,337.6c-9.5,22.5-20.8,44.1-30.6,66.4-39,89-67.6,81.9-73,78.8-7.9-4.5-7.8-24.8-7.9-33.9-.3-33.6,10.8-66.8,29-100.5,6.4-11.8,13.9-22.9,22.9-32.8,19.4-21.2,47-14.5,50.8-13,4.7,1.9,9.1,4.7,11.4,9.3,4.1,7.9.8,17.4-2.7,25.6h0ZM1122.2,333.9c-3.3.9-10.3.9-13.7,1.7-3.5.8-6.9,2-9.9,3.9-7.3,4.6-11.7,12.9-14.2,21.2-4.6,15.2-4.1,32,1.6,46.9,2.1,5.4,4.8,10.8,6.3,16.3h0c.8,2.8,1.2,5.5,1.1,8.4,0,3-2.3,8.3-5.7,14.5-8.1,14.4-23.2,33.4-35.4,38.6-8.5,3.6-17.9,6.9-26.6,3.7-7.9-2.9-13.7-10-16.7-17.9s-3.4-16.5-3.2-24.9c.3-12.4,2.2-24.4,5.2-36,5-19,13.3-37,23.9-54,3-4.8,6.1-9.4,9.4-14,7.9-11,16.5-24.1,28.5-30.3,11.4-5.9,26-7.1,36.9-.5.6.3,1.1.7,1.7,1.1,3.1,2.2,5.8,5,8,8.1.9,1.4,2.5,5.5,3.2,8.8.5,2.3.5,4.3-.4,4.5h0ZM208.3,878.9h-45.6l-18.1-43.9H61.6l-17.1,43.9H0l80.8-218.4h44.3l83.1,218.4h0ZM131.1,792.5l-28.6-81-28,81h56.6ZM219.4,660.5h46.5v118.3c0,18.8.6,30.9,1.7,36.5,2,8.9,6.7,16.1,14.2,21.5s17.7,8.1,30.7,8.1,23.2-2.6,29.9-7.7c6.7-5.1,10.7-11.4,12.1-18.8,1.4-7.4,2-19.8,2-37.1v-120.8h46.5v114.7c0,26.2-1.3,44.7-3.8,55.6-2.5,10.8-7.2,20-13.9,27.4-6.8,7.4-15.8,13.4-27.1,17.8-11.3,4.4-26.1,6.6-44.3,6.6s-38.7-2.4-50.1-7.2-20.4-11.1-27-18.8-11-15.8-13-24.2c-3-12.5-4.6-31-4.6-55.4v-116.5h.2ZM490.3,878.9v-179.5h-70.5v-38.8h185v38.8h-66.6v179.5h-47.9ZM601.2,771c0-22.2,5.2-40.9,11.9-56,5-11.1,13.6-21.1,22.2-29.9,8.6-8.8,18-15.4,28.2-19.7,13.6-5.8,29.3-8.6,47.1-8.6,32.2,0,59.8,10,79.1,29.9,19.3,20,30.9,47.7,30.9,83.3s-11.5,62.8-30.7,82.7-46.7,29.9-78.8,29.9-60.2-9.9-79.4-29.7-30.7-47.1-30.7-81.8h.2ZM650.4,769.5c0,24.7,5.7,43.5,17.1,56.2,11.4,12.8,25.9,19.1,43.5,19.1s32-6.3,43.3-19,16.9-31.7,16.9-57-5.5-43.7-16.5-56-25.5-18.5-43.7-18.5-32.8,6.2-43.9,18.7c-11.1,12.5-16.7,31.3-16.7,56.4h0ZM980.7,660.5h87.3c17.3,0,30.2.7,38.7,2.2,8.5,1.4,19.9,4.4,26.6,9s12.3,10.7,16.8,18.2c4.5,7.6,6.7,16.1,6.7,25.5s-2.8,19.6-8.3,28.2c-5.5,8.5-16.8,14.9-26.2,19.2,13.3,3.9,27.3,10.5,34.5,19.8,7.1,9.3,10.7,20.3,10.7,32.9s-2.3,19.6-6.9,29-10.9,16.9-18.9,22.5-21.7,9.1-33.4,10.4c-7.3.8-25.1,1.3-53.2,1.5h-74.3v-218.4h0ZM1026.7,696.9v50.5h27c17.2,0,27.9-.2,32-.7,7.5-.9,13.5-3.5,17.8-7.8s6.5-10,6.5-17.1-1.9-12.2-5.6-16.5c-3.7-4.2-9.3-6.8-16.6-7.7-4.4-.5-16.9-.7-37.7-.7h-23.4ZM1026.7,783.7v58.4h38.9c15.9,0,26-.4,30.2-1.3,6.6-1.2,11.9-4.1,16-8.7,4.1-4.6,6.2-10.8,6.2-18.5s-1.6-12.1-4.8-16.7c-3.2-4.6-7.8-7.9-13.8-10s-19-3.1-39.1-3.1h-33.7.1ZM1442.1,660.5h88.6c20,0,35.2,1.4,45.7,4.2,14.1,3.8,26.2,10.5,36.2,20.1s17.7,21.4,22.9,35.4c5.2,14,7.9,31.2,7.9,51.6s-2.5,33.5-7.4,46.5c-6,15.9-14.6,28.7-25.7,38.6-8.4,7.4-19.8,13.3-34.1,17.4-10.7,3.1-25,4.6-42.9,4.6h-91.3v-218.4h.1ZM1490.6,701.3v138.9h36.2c13.5,0,21.4-.7,27.4-2.1,7.9-1.8,14.4-4.8,19.6-9.1s9.4-11.3,12.7-21.1c3.3-9.8,4.9-21.2,4.9-38.1s-1.6-26-4.9-35.1c-3.3-9-7.9-16.1-13.8-21.2-5.9-5.1-13.4-8.5-22.4-10.3-6.8-1.4-18.1-2.1-37.9-2.1h-21.8v.2ZM1722.9,878.9v-82.4l-76.2-136h51.7l51.4,86.4,50.3-86.4h50.8l-76.5,136.3v82.1h-51.6,0ZM1191.8,771c0-22.2,5.2-40.9,11.9-56,5-11.1,13.6-21.1,22.2-29.9,8.6-8.8,18-15.4,28.2-19.7,13.6-5.8,29.3-8.6,47.1-8.6,32.2,0,59.8,10,79.1,29.9,19.3,20,30.9,47.7,30.9,83.3s-11.5,62.8-30.7,82.7-46.7,29.9-78.8,29.9-60.2-9.9-79.4-29.7c-19.2-19.8-30.7-47.1-30.7-81.8h.2ZM1241,769.5c0,24.7,5.7,43.5,17.1,56.2,11.4,12.8,25.9,19.1,43.5,19.1s32-6.3,43.3-19,16.9-31.7,16.9-57-5.5-43.7-16.5-56-25.5-18.5-43.7-18.5-32.8,6.2-43.9,18.7-16.7,31.3-16.7,56.4h0Z"/>
</svg>